<svg width="337" height="123" viewBox="0 0 337 123" fill="none" xmlns="http://www.w3.org/2000/svg">
<path d="M26.96 92.25C26.96 80.0169 31.2206 68.2848 38.8046 59.6347C46.3886 50.9846 56.6746 46.125 67.4 46.125C78.1253 46.125 88.4114 50.9846 95.9954 59.6347C103.579 68.2848 107.84 80.0169 107.84 92.25" stroke="black" stroke-width="3"/>
<path d="M33.7 92.25H101.1" stroke="black" stroke-width="3"/>
<path d="M67.4 49.2C70.3779 49.2 72.792 46.4465 72.792 43.05C72.792 39.6534 70.3779 36.9 67.4 36.9C64.4221 36.9 62.008 39.6534 62.008 43.05C62.008 46.4465 64.4221 49.2 67.4 49.2Z" fill="black"/>
<path d="M67.4 43.05V53.8125" stroke="black" stroke-width="3"/>
<path d="M67.4 87.6375C76.3338 87.6375 83.576 79.3771 83.576 69.1875C83.576 58.9978 76.3338 50.7375 67.4 50.7375C58.4662 50.7375 51.224 58.9978 51.224 69.1875C51.224 79.3771 58.4662 87.6375 67.4 87.6375Z" fill="#4CAF50"/>
<path d="M60.66 67.65C62.1489 67.65 63.356 66.2733 63.356 64.575C63.356 62.8767 62.1489 61.5 60.66 61.5C59.171 61.5 57.964 62.8767 57.964 64.575C57.964 66.2733 59.171 67.65 60.66 67.65Z" fill="white"/>
<path d="M74.14 67.65C75.629 67.65 76.836 66.2733 76.836 64.575C76.836 62.8767 75.629 61.5 74.14 61.5C72.651 61.5 71.444 62.8767 71.444 64.575C71.444 66.2733 72.651 67.65 74.14 67.65Z" fill="white"/>
<path d="M60.66 73.8C65.1533 78.925 69.6467 78.925 74.14 73.8" stroke="white" stroke-width="2" stroke-linecap="round"/>
</svg>
